# xmcd
#
# Track frame offsets:
#	150
#	31305
#	51464
#	69099
#	87987
#	111658
#	134635
#	152076
#
# Disc length: 2317 seconds
#
# Revision: 0
# Processed by: cddbd v1.5.2PL0 Copyright (c) Steve Scherf et al.
# Submitted via: audiograbber 1.83.01
#
DISCID=70090b08
DTITLE=Deep Purple - Perfect Strangers
DYEAR=1984
DGENRE=Hard Rock
TTITLE0=Knocking At Your Back Door
TTITLE1=Under The Gun
TTITLE2=Nobody´s Home
TTITLE3=Mean Streak
TTITLE4=Perfect Strangers
TTITLE5=A Gypsy´s Kiss
TTITLE6=Wasted Sunsets
TTITLE7=Hungry Daze
EXTD=
EXTT0=
EXTT1=
EXTT2=
EXTT3=
EXTT4=
EXTT5=
EXTT6=
EXTT7=
PLAYORDER=
